/* XPM */
static char *ff04f9301f274de9c71ff9cdececd43cYQWetWsTgWF0eb8y[] = {
/* columns rows colors chars-per-pixel */
"50 50 166 2 ",
"   c None",
".  c black",
"X  c #040301",
"o  c #040302",
"O  c #1B0000",
"+  c #1B120A",
"@  c #1B130A",
"#  c #1D140B",
"$  c #1F150B",
"%  c #1D150C",
"&  c #1F150C",
"*  c #22170D",
"=  c #3A120A",
"-  c #362514",
";  c #3A2716",
":  c #7D4514",
">  c #7E4515",
",  c #7D4615",
"<  c #7E4615",
"1  c #7F4615",
"2  c #7E4716",
"3  c #7F4716",
"4  c #7F4816",
"5  c #7F4719",
"6  c #794827",
"7  c #77482B",
"8  c #784829",
"9  c #8E3E13",
"0  c #8F3E13",
"q  c #E00000",
"w  c #E40301",
"e  c red",
"r  c #FF0301",
"t  c #FC0103",
"y  c #FF0302",
"u  c #F00803",
"i  c #F00903",
"p  c #F20A04",
"a  c #FB120A",
"s  c #FD130A",
"d  c #FF120A",
"f  c #FF130A",
"g  c #FF140A",
"h  c #FF140B",
"j  c #FF150C",
"k  c #EB0913",
"l  c #E80815",
"z  c #E80915",
"x  c #E90915",
"c  c #E80A16",
"v  c #EB1D1F",
"b  c #FF2716",
"n  c #D61527",
"m  c #D31229",
"M  c #E81C20",
"N  c #804715",
"B  c #814715",
"V  c #804716",
"C  c #824817",
"Z  c #9D491B",
"A  c #8D521E",
"S  c #8E521E",
"D  c #8E531E",
"F  c #8F531E",
"G  c #8E531F",
"H  c #8F531F",
"J  c #90531F",
"K  c #915520",
"L  c #9B5D26",
"P  c #9D5E27",
"I  c #FFF037",
"U  c #C5864A",
"Y  c #C9884C",
"T  c #DD9653",
"R  c #E4864A",
"E  c #FF864A",
"W  c #F28D4D",
"Q  c #E2964F",
"!  c #E49750",
"~  c #E09854",
"^  c #E09855",
"/  c #E09955",
"(  c #E29955",
")  c #E49A56",
"_  c #E49B56",
"`  c #FF9653",
"'  c #FF9854",
"]  c #FF9954",
"[  c #FF9955",
"{  c #FC9957",
"}  c #FF9B56",
"|  c #EFA157",
" . c #EFA258",
".. c #F0A157",
"X. c #F0A158",
"o. c #F1A158",
"O. c #F1A258",
"+. c #F2A258",
"@. c #FBAA5E",
"#. c #FBAA5F",
"$. c #FDAB5F",
"%. c #FFAA5F",
"&. c #FDAC5F",
"*. c #FFAE5F",
"=. c #FFB05F",
"-. c #D39873",
";. c #E89060",
":. c #E5A16B",
">. c #E7A26B",
",. c #EBA168",
"<. c #EBA369",
"1. c #E8A26A",
"2. c #E9A26A",
"3. c #E9A46A",
"4. c #FCAC61",
"5. c #FFAD60",
"6. c #FFAE60",
"7. c #FFAF60",
"8. c #FFAE61",
"9. c #FFAF61",
"0. c #FFAF62",
"q. c #FFB061",
"w. c #FFB062",
"e. c #FFB162",
"r. c #D6C754",
"t. c #D3C857",
"y. c #EADB48",
"u. c #6B3F8C",
"i. c #3F51B5",
"p. c #3C50B6",
"a. c #3D50B6",
"s. c #3C50B7",
"d. c #3E50B6",
"f. c #3E51B6",
"g. c #3F51B6",
"h. c #3E51B7",
"j. c #3D52B7",
"k. c #3E52B6",
"l. c #3A51B9",
"z. c #3A52B9",
"x. c #3C52B8",
"c. c #56479F",
"v. c #685995",
"b. c #6B5498",
"n. c #5546A0",
"m. c #5447A1",
"M. c #5348A2",
"N. c #5548A0",
"B. c #564AA1",
"V. c #4750A2",
"C. c #4650A4",
"Z. c #4850A0",
"A. c #565AA9",
"S. c #555CAB",
"D. c #565CAB",
"F. c #535BAC",
"G. c #545BAC",
"H. c #545DAD",
"J. c #4051B2",
"K. c #4250B2",
"L. c #4253B3",
"P. c #4252B4",
"I. c #5564A7",
"U. c #5764A6",
"Y. c #5361A8",
"T. c #6B66A2",
/* pixels */
"                                                                                                    ",
"                                                                                                    ",
"                                e e e e e e e e e e e e e e e                                       ",
"                                e e e e e e e e e e e e e e e                                       ",
"                                e e e e e e e e e e e e e e e                                       ",
"                          e e e e e e e e e e e e e e e e e e e e e e e e e e e                     ",
"                          e e e e e e e e e e e e e e e e e e e e e e e e e e e                     ",
"                          i i i i i i i i i s j j j j a w q w a j g e e e e e e                     ",
"                          0 0 0 9 9 9 9 9 Z W [ [ [ ' R = O = R ' '                                 ",
"                          1 1 4 4 4 1 1 1 H  .9.9.9.9.^ % . % / 9.9.                                ",
"                          H H H C 1 C H H L X.9.5.5.9.^ % . % / 9.5.                                ",
"                    V 1 H ! | ! H 1 H Q X.X.&.%.5.5.9.^ * . * ^ 9.5.9.5.9.9.9.%.                    ",
"                    V 1 H X.9.X.H 1 H  .e.9.9.9.%.9.9.^ @ . # / e.9.9.5.5.5.5.5.                    ",
"                    V 1 H ..9...H 1 H Q  . .%.*.9.%.9.) ; + - Y / ) @.5.5.5.5.5.                    ",
"                    V 1 H ..9.X.H 1 V H A L { 9.%.9.9.@.) / Y - @ ; ) 9.5.5.5.5.5.5.9.              ",
"                    V 1 H X.9.X.H , 1 1 , A  .9.5.*.*.9.9.e.) # . # ^ 9.9.5.9.9.5.*.9.              ",
"                    V 1 J ! X.! L H H H A L  .9.9.*.5.@.) / U @ . @ U ^ ! T / ) %.9.*.              ",
"                          G G L Q | ..|  .{ &.9.%.9.9.) ; @ @ o . X @ * * % % *                     ",
"                          1 1 H _ 9.9.9.9.9.5.5.9.5.9.^ + . . . . . . . . . . .                     ",
"                          C 4 K +.9.9.%.5.5.5.5.*.5.9./ ; @ * * % + o . . . . .                     ",
"                                *.9.9.%.9.%.*.5.5.5.9.@.) / ~ ~ ^ T                                 ",
"                                9.9.9.9.*.9.9.9.9.5.9.9.9.*.*.e.e.9.                                ",
"                                ` ' [ ,.:.,.{ ' ' ' [ { ,.:.,.[ [ `                                 ",
"                          e e e d d v b.H.b.v g j s g v b.H.b.v g g y e e                           ",
"                          e e e e e l n.l.n.c e e e e c n.l.n.l e e e e e                           ",
"                          e e e e e c c.x.c.c e e e e c c.x.c.c e e e e e                           ",
"                    e e e e e e e e c c.x.c.c e e e e c c.x.c.c e e e e e e e e                     ",
"                    e e e e e e e e c c.x.c.c e e e e c c.x.c.c e e e e e e e e                     ",
"                    e e e e e e e e c c.j.n.m c c c c m M.x.c.c e e e e e e e e                     ",
"              e e e e e e e e e e e c c.s.K.n.n.c.c.c.n.K.j.c.c e e e e e e e e e e e               ",
"              e e e e e e e e e e e c c.s.s.s.j.j.j.j.s.s.s.n.c e e e e e e e e e e e               ",
"              j j j j j j e e e k c n v.I.I.L.J.j.P.P.K.I.I.v.n c c t e e d j j j j j               ",
"              ' ' ' ' ' E s e k b.n.b.r.y.r.I.p.i.i.p.I.t.y.r.v.c.b.w e d E [ ' ' ' '               ",
"              9.9.9.9.9.' s e c n.l.A.y.I y.U.p.i.i.p.U.y.I y.I.z.c.l e j [ 9.9.9.9.9.              ",
"              9.5.5.5.9.} b s M B.j.Y.t.y.t.Y.p.i.i.i.I.t.y.r.I.s.n.M d b [ 9.5.5.5.5.              ",
"              %.5.5.5.5.5.[ [ ;.A.j.K.H.U.A.i.i.i.i.i.i.Y.I.A.i.s.G.) [ [ %.5.5.5.5.5.              ",
"              9.*.9.%.9.9.9.9.:.G.J.x.s.s.s.K.j.i.i.i.i.i.p.i.i.P.G.3.e.e.e.5.5.5.5.9.              ",
"              9.5.%.9.*.5.,.,.-.F.J.J.P.K.P.j.K.i.i.i.i.i.i.i.i.d.G.-.;.>.0.5.5.5.5.*.              ",
"              *.5.5.9.*.,.T.H.F.K.j.P.j.j.s.j.s.i.i.i.i.i.i.i.i.s.P.F.G.T.<.9.5.5.5.9.              ",
"              9.5.5.*.*.:.A.j.j.j.K.s.K.j.K.K.j.i.i.i.i.i.i.i.i.J.P.d.d.H.>.9.9.5.5.9.              ",
"              9.5.5.9.*.:.G.j.J.P.s.P.j.P.s.j.P.j.P.j.P.P.s.K.j.s.P.J.s.G.:.*.9.5.5.9.              ",
"                          P.P.s.s.J.s.K.j.K.            s.J.j.j.P.s.J.j.P.                          ",
"                          s.s.P.j.j.P.j.P.j.            P.s.j.P.s.x.j.P.j.                          ",
"                          V.V.V.V.V.C.K.s.K.            j.K.K.C.V.V.V.Z.Z.                          ",
"                    V V V 8 8 8 8 8 8                         8 8 8 8 8 6 5 V V                     ",
"                    V V V V V V V V V                         V V B B B V V V V                     ",
"                    V V V V V V V V V                         V V V V V V V V V                     ",
"              V V V V V V V V V V V V                         V V V V V V V V V V V V               ",
"              V V V V V V V V V V V V                         V V V V V V V V V V V V               ",
"              V V V V V V V V V V V V                         V V V V V V V V V V V V               "
};
