/* XPM */
static char *_080d4d7386d4218e2e941cc8791da95U6V73COTDcopFWHo[] = {
/* columns rows colors chars-per-pixel */
"50 50 196 2 ",
"   c None",
".  c #261402",
"X  c #2A1603",
"o  c #2E1804",
"O  c #281708",
"+  c #27180A",
"@  c #2D1C0C",
"#  c #331B03",
"$  c #3A1F02",
"%  c #331E0A",
"&  c #221A11",
"*  c #2C1F12",
"=  c #3D2002",
"-  c #37220D",
";  c #3E260B",
":  c #2B2116",
">  c #2B231A",
",  c #332313",
"<  c #382613",
"1  c #3C2914",
"2  c #34261A",
"3  c #35281C",
"4  c #3B2C1D",
"5  c #2E2621",
"6  c #2E2821",
"7  c #332B23",
"8  c #3B2F22",
"9  c #332E2A",
"0  c #3D3226",
"q  c #36312C",
"w  c #3B342D",
"e  c #373430",
"r  c #3A3632",
"t  c #3D3934",
"y  c #3E3C38",
"u  c #432302",
"i  c #492602",
"p  c #4E2902",
"a  c #42270A",
"s  c #462A0C",
"d  c #4B2E0E",
"f  c #542C02",
"g  c #582F02",
"h  c #4F300F",
"j  c #5C3104",
"k  c #52320E",
"l  c #5B340A",
"z  c #432B13",
"x  c #452F18",
"c  c #4D3113",
"v  c #4B351F",
"b  c #523311",
"n  c #5A3712",
"m  c #563816",
"M  c #5D3914",
"N  c #5A3B1C",
"B  c #613507",
"V  c #633709",
"C  c #66390A",
"Z  c #693A0B",
"A  c #633C14",
"S  c #693F13",
"D  c #643F18",
"F  c #413325",
"G  c #4C3926",
"H  c #41372C",
"J  c #44392D",
"K  c #493B2C",
"L  c #573E23",
"P  c #5D3F21",
"I  c #433C34",
"U  c #493E32",
"Y  c #423E39",
"T  c #6C4317",
"R  c #62411E",
"E  c #6E4419",
"W  c #734516",
"Q  c #764817",
"!  c #724618",
"~  c #774918",
"^  c #794A19",
"/  c #5F4121",
"(  c #474037",
")  c #4C4135",
"_  c #47413A",
"`  c #47423B",
"'  c #46413A",
"]  c #43403C",
"[  c #46423D",
"{  c #46433F",
"}  c #45423D",
"|  c #48433C",
" . c #48443E",
".. c #4B443C",
"X. c #524233",
"o. c #52473C",
"O. c #53493E",
"+. c #584A3C",
"@. c #624324",
"#. c #6A4725",
"$. c #6C4927",
"%. c #65482C",
"&. c #6B4C2F",
"*. c #654B35",
"=. c #6B4D30",
"-. c #664F39",
";. c #474440",
":. c #474440",
">. c #484541",
",. c #494742",
"<. c #4A4641",
"1. c #4D4740",
"2. c #494641",
"3. c #4B4842",
"4. c #4D4942",
"5. c #4D4944",
"6. c #4D4A45",
"7. c #4C4A45",
"8. c #4E4B46",
"9. c #4E4B45",
"0. c #4F4C47",
"q. c #4D4A44",
"w. c #4F4C48",
"e. c #524D47",
"r. c #514D46",
"t. c #544C44",
"y. c #584F45",
"u. c #504D48",
"i. c #514E49",
"p. c #534F48",
"a. c #524F49",
"s. c #575047",
"d. c #5B5147",
"f. c #53504B",
"g. c #55514A",
"h. c #53514C",
"j. c #55534D",
"k. c #57534C",
"l. c #57554F",
"z. c #57544D",
"x. c #55524C",
"c. c #5C544B",
"v. c #5F584E",
"b. c #595751",
"n. c #5A5651",
"m. c #5B5852",
"M. c #5A5851",
"N. c #5C5953",
"B. c #5C5A53",
"V. c #5D5A54",
"C. c #5D5B55",
"Z. c #5E5B55",
"A. c #5F5B55",
"S. c #5E5B56",
"D. c #5F5C56",
"F. c #5F5D57",
"G. c #5E5C55",
"H. c #5D5A54",
"J. c #5D5459",
"K. c #614E43",
"L. c #645241",
"P. c #62564C",
"I. c #61584E",
"U. c #635551",
"Y. c #605D57",
"T. c #605C55",
"R. c #635C54",
"E. c #685E55",
"W. c #615E58",
"Q. c #625F59",
"!. c #615D58",
"~. c #625E59",
"^. c #6D6053",
"/. c #63605A",
"(. c #67635D",
"). c #66625D",
"_. c #65625A",
"`. c #68645E",
"'. c #6B655C",
"]. c #6C685F",
"[. c #71675C",
"{. c #75695E",
"}. c #7E6C5B",
"|. c #5D6075",
" X c #6B6660",
".X c #6D6961",
"XX c #756A61",
"oX c #796E64",
"OX c #706B6D",
"+X c #7B7167",
"@X c #656B7E",
"#X c #82766B",
"$X c #84796F",
"%X c #857B71",
"&X c #676D81",
"*X c #6A7185",
/* pixels */
"                                        a.w.a.h.' ' { I D.`./. X                                    ",
"                                    I q.5.q.5.w.{ _ 0._ I 9.D.).D.B.                                ",
"                                (.(.k.Y 5.5.w.h.;._ q.5.3.t w ' t r g.`./.                          ",
"                            Y q.Y.T.Y.Y :.w.q.w.y ,.5.w.w._ 9 w 3 w G./.D.D.Y.                      ",
"                          _ I w g./.b.9 9 I Y t 9 w e _ { w q r q | D.m.V.F.m.                      ",
"                      w a.W.V.a.r ,.>.3 % % % , @ # @ % , 2 : 9 w l.Y.D.N.m.W.r.                    ",
"                    4.I V.V.b.T.q.9 e , # X . X o # # X X X X % < I x.l.l.W.V.y t y                 ",
"                    w r V.V.V.V.p.< * X . # = f f f f i f p = X X % 8 I q.h.:.9 w e                 ",
"                  ] r 9 5.W.W.T.U # . # i p p g f f f f g j j f $ . X % 4 y t Y _ w                 ",
"                Y y y e q Y ,.Y , . u f p f p g g f f p g j g g f u X . # - I a.9.{ w               ",
"                I r q 6 y e 2 @ X i g f f f p g g f f f g B g f f f u X . # 0 w.9.;.r y             ",
"              `.W.V.9.7 8 2 X . p g g g f p p g g f f f g j g g f p g p . X , ( w.;.e t             ",
"              W.D.D.b.1.% # . $ l g g g f p p g g g f p f j g g f f f j u . # 2 Y y 7 q             ",
"              Y.D.V.a.] 2 . # p g g g g f f f g g g f p g B g f f f f j f # X # , q 4.V.N.          ",
"              r.V.F.w.y : X i p l g f g f p f f g f f p f B g g f f f g f f X # % r.V.).V.          ",
"            r.w q I 0 7 @ $ f i g g g f f f f g g g f f f B g f f f f j f j $ X - d.W.W.q.          ",
"           XW.p.0 Y 2 o . p f p g g g f f f f g g g f p f j g g f f p g g g p . % d.N.>.y g.        ",
"          W.V.r.r >.5 o # g p p l g f g f p p g g g f p f j g f f f f g g g f # o o.n.Y :.V.        ",
"          W.b.r I y 2 . u g p p g j f g f f f g f g f f f j g f f f p g g g f = X K n.] 5.n.,.      ",
"          ,.I 7 e 9 @ . p g f p j g f f f f p g g f f p f j g f f f p g f g f i X , Y y w 4.        ",
"          q.Y 7 Y 5 X # g j g g V V g j j g g j j j g f f V j g g g g B g j g f o # w :.y 7         ",
"    oX  u.q.y 4.Q.H * f f f f f f f f f f f f f f f f f f f f f f f f f f f f f # o H Y I t.        ",
"E.#XXX  5.>.r N.!.I * f f f f f f f f f f f f f f f f f f f f f f f f f f f f f $ X , Y N.V.T.+X    ",
"R.c.    w.I w N.T.I * f f f f f f f f f f f f f f f f f f f f f f f f f f f f f u X , a.V.l.R.{.XXI.",
"y.( ^.%XI q 7 x.!.Y , f f f f f f f f f f f f f f f f f f f f f f f f f f f f f u X 0 ' r.{ r.[.t.y.",
"  I.E.$X( > > 7 Y e * f f f f f f f f f f f f f f f f f f f f f f f f f f f f f $ X ) g.r w [.$XO.t.",
"    c.'.I.> * 9 Y e + f f f f f f f f f f f f f f f f f f f f f f f f f f f f f X X G x.w U [.c.r.  ",
"      E.E.w > w n. .+ f f f f f f f f f f f f f f f f f f f f f f f f f f f f f # # U T...c.E.      ",
"    o.I.R.t...7 a...o f f f f f f f f f f f f f f f f f f f f f f f f f f f f f v X.R.c.t.y.t.      ",
"    I.R...O.R.U r J o f f f f f f f f f f f f f f f f f f f f f f f f f f f f f.R.P.I.y.c.t.        ",
"      oXT.o.t.I.5 , o f f f f f f f f f f f f f f f f f f f f f f f f f f f f f.t.y.t.T.oX[.I.      ",
"      (.oXc.p.c.o.5 * f f f f f f f f f f f f f f f f f f f f f f f f f f f f f.t.y.I.^.XX+X'.      ",
"        R.E.k.E.oXoXo.f f f f f f f f f f f f f f f f f f f f f f f f f f f f f.4.t.c.R.[.P.U.      ",
"        y.d.y...y.E.{.*f f f f f f f f f f f f f f f f f f f f f f f f f f f f f.d.U U ..I  .N.     ",
"        Q.d.O...t.t.c.[.f f f f f f f f f f f f f f f f f f f f f f f f f f f f x % 8 Y q b.x.      ",
"          V.( t.t.y.I.P.P.E.-.&XI.E E T E E T E E E E T E E E T T T &.*XP.S l p # o H r.w w r       ",
"          _ w ....t.#Xd.+.L @.P.*.T T T T E T T E E T E T E T T T T #.N.*.T B p # o 4 w 7 w ]       ",
"          | 7 w I U U.'.+.l A E $.T E E E E E T E W E E E T T T T E E E #.E S V = X 0 9.I _ 5.      ",
"          ).g.I N.4.Y y.o.c x M T A C T T Z T T T T Z T T T Z T S S S T D S l g = o K /.l.r e       ",
"          /.l.N.!.n.0 J ..F 2 3 x p f f f g f f f f g f f f f f f f f f g g f f = X O.`.N.t 7       ",
"          /.9.g.N.k.q 8 1 d , a p f f f g g g g j f f f f f f f g f g g f j g j = o t.`.Y.4.y       ",
"          4.r w n.u.7 3 s i 1 f f f p f f p f f f f f p f f f f p f p p f p p p # o w 0.l.' w       ",
"          N.D.g.Y r 5 % f i u i f f p i = = = f f p i u $ i f f i i u p p i i u o o , r e I r.      ",
"          Y.D.D.b.w.9 % g g f g B j f f f i p g f g f f p p j f f f p f j f f f # o x b.N.V.W.l.    ",
"          V.N.m.m.l.t % f f f f j j f f f f f f g j f f f p g f f f i f g f f f # # O././.`.V.3.    ",
"          W.W.D.D.h.t 4 m b b c b n b k d d d k k k d d d d k k d d d k b k h h < 3 y.W.D.x.;.      ",
"          f.l.m.f.;.l..X.X'.(.`.].]..X'.(./.Q.E._.(.(._.(.(././.Y.E.Y./.(.(././.).`.l.I r e 6       ",
"                  I g.c.c.I.I.P.I.I.c.l.g.g.g.a.p.g.l.v.T.Y.Y.V.D.N.N.N.c.N.N.b.h.f.q.&             ",
"                                          q w H U I     I I I w e r U X.                            ",
"                                                                                                    "
};
