/* XPM */
static char *_0ec59e4546c4b90f4ce8474e8f6f830gv6AFJwCsNtd0Qo4[] = {
/* columns rows colors chars-per-pixel */
"50 49 149 2 ",
"   c None",
".  c #000000",
"X  c #090806",
"o  c #17120E",
"O  c #1D1711",
"+  c #221B13",
"@  c #2D241A",
"#  c #31261C",
"$  c #372C20",
"%  c #3E3225",
"&  c #6C050A",
"*  c #6A0F11",
"=  c #443326",
"-  c #564532",
";  c #594834",
":  c #7F452C",
">  c #6D4E3A",
",  c #7C4633",
"<  c #6A553D",
"1  c #66523C",
"2  c #7D396E",
"3  c #753C75",
"4  c #6E494D",
"5  c #754841",
"6  c #6E5941",
"7  c #6C5740",
"8  c #735C43",
"9  c #6C4A53",
"0  c #674B5C",
"q  c #7B6348",
"w  c #6A427F",
"e  c #8C050D",
"r  c #9E1216",
"t  c #A9050E",
"y  c #AF1F1F",
"u  c #B9211B",
"i  c #BF1833",
"p  c #B51E3D",
"a  c #B81B39",
"s  c #C50611",
"d  c #D70B1D",
"f  c #DA0B1B",
"g  c #E6030F",
"h  c #E8040F",
"j  c #E30613",
"k  c #E20916",
"l  c #E40F19",
"z  c #E4121B",
"x  c #E4181F",
"c  c #D30E22",
"v  c #C5152E",
"b  c #CC1228",
"n  c #C11731",
"m  c #E41D22",
"M  c #D63830",
"N  c #E52426",
"B  c #E52D2C",
"V  c #E5302E",
"C  c #E63A35",
"Z  c #824426",
"A  c #854729",
"S  c #8A4C2D",
"D  c #874A2B",
"F  c #8D4F30",
"G  c #8F5332",
"H  c #905433",
"J  c #965A38",
"K  c #955837",
"L  c #BC4035",
"P  c #9D613E",
"I  c #E6443A",
"U  c #E8463C",
"Y  c #E7493D",
"T  c #E94A3E",
"R  c #9A2C4E",
"E  c #932E5A",
"W  c #982B56",
"Q  c #AA2246",
"!  c #A5254B",
"~  c #863264",
"^  c #8C3261",
"/  c #833569",
"(  c #AE764F",
")  c #AF7750",
"_  c #B47D54",
"`  c #8C5668",
"'  c #AD6572",
"]  c #A16F7F",
"[  c #DF4741",
"{  c #E64E42",
"}  c #E96752",
"|  c #EA7359",
" . c #EA7A5E",
".. c #EA7F61",
"X. c #F9ED2D",
"o. c #EBE236",
"O. c #AFAF5E",
"+. c #BEBB53",
"@. c #B2B15C",
"#. c #95996E",
"$. c #9B9E6A",
"%. c #8D9274",
"&. c #909571",
"*. c #BB966D",
"=. c #C3BF50",
"-. c #C58E63",
";. c #CB9569",
":. c #CF9A6D",
">. c #D29C6F",
",. c #C49D72",
"<. c #EB8464",
"1. c #EB8D69",
"2. c #EB956F",
"3. c #EC9C74",
"4. c #D5A173",
"5. c #D9A777",
"6. c #DCAC7B",
"7. c #D3AA7B",
"8. c #EDA67A",
"9. c #EDAB7D",
"0. c #F0AA7D",
"q. c #E2B17F",
"w. c #3E54A4",
"e. c #5E4688",
"r. c #4D4F97",
"t. c #4B5292",
"y. c #46539D",
"u. c #49529B",
"i. c #48589F",
"p. c #644484",
"a. c #684380",
"s. c #546297",
"d. c #636F8D",
"f. c #67738C",
"g. c #68738A",
"h. c #727B85",
"j. c #7C799B",
"k. c #4354A1",
"l. c #906E88",
"z. c #827D9A",
"x. c #DEB281",
"c. c #E4B482",
"v. c #ECB583",
"b. c #E6B986",
"n. c #EBB986",
"m. c #EEBF8A",
"M. c #EEC18B",
"N. c #F1C28C",
"B. c #F0C18B",
/* pixels */
"                                                                                                    ",
"                                                                                                    ",
"                                                                                                    ",
"                                                                                                    ",
"                                                                                                    ",
"                                j j j j k j j j j j j j j k j j             M.M.m.m.m.m.m.m.m.      ",
"                                j j j j j j j j j k k j j j j j             M.M.M.m.m.m.m.m.M.      ",
"                                j j k j j j k j j j j j j j k j              . .<.m.m.m.m.m.m.      ",
"                          j j j j j j j j j j j j j j j j j j j j j j j j j j j N 9.m.m.m.m.m.      ",
"                          j j j j j j j j h j j j j j j j j h j j j j j j j j j m 9.M.M.M.M.N.      ",
"                          u u u u u u u u u M { U U U I r e e y U Y V j j j j j x <.3.3.3.3.3.      ",
"                          Z : Z Z A Z Z Z Z -.m.m.m.m.x.@ . . ; m.m.v.      j j k l l z z z z       ",
"                          Z : Z Z Z Z Z Z Z -.m.m.m.M.x.@ . . ; m.m.M.      j j j j j j j j j       ",
"                          ( _ ( S Z Z H J J :.m.m.m.M.x.@ . . ; m.m.m.      x m x k j j j k j       ",
"                    Z Z S 5.N.q.H Z S 4.m.n.m.m.m.m.m.x.@ . . ; m.m.m.m.m.v.8.9.2.m j j j j j       ",
"                    Z Z S 5.N.c.H Z S 5.N.m.m.m.m.m.M.x.@ . . ; B.B.B.m.m.M.M.M.9.m j j j j j       ",
"                    Z Z S 5.M.q.H Z A >.v.c.n.m.m.m.m.c.$ X X - 7.7.x.M.m.m.m.M.9.N j k j j j       ",
"                    Z Z S 5.N.q.H Z Z F H F :.m.m.m.m.m.,.*.*.7 O O 7 N.m.m.m.m.n.1.<.<.N j k       ",
"                    Z Z S 5.N.c.H Z Z Z Z Z ;.m.m.m.m.m.N.N.N.q . . ; B.m.m.m.m.M.B.N.M.C j j       ",
"                    Z Z D -.4.;.K S F S F S ;.m.m.m.m.m.n.b.n.8 . . ; b.b.b.b.b.b.n.m.n.C j j       ",
"                    Z Z Z A A J 5.6.x.6.q.5.n.m.m.m.m.x.- # # o . . o % % % % % = L I I N           ",
"                    Z Z Z Z Z J n.m.m.m.m.m.m.m.m.m.m.7.+ . . . . . . . . . . . . t h j             ",
"                    Z Z Z Z Z P n.m.m.m.m.m.m.m.m.m.m.x.O . . . . . . . . . . . X t h j             ",
"                                m.m.m.m.m.m.m.m.m.M.m.b.q 1 7 7 < < < 7 7 > * & & s j j             ",
"                                m.m.m.m.m.m.m.m.m.m.m.m.m.m.N.M.N.N.M.N.N.0.m j j j j j             ",
"                                n.m.m.n.m.m.m.m.m.m.m.m.m.m.m.m.m.m.m.m.M.9.m j k j j j             ",
"              k j j j j j j j z C I [ l.j.j.' I U U U U U Y T ' z.z.l.{ { I l j j               Z Z ",
"              j j k j j j k j j j h d e.w.w.^ j j j j j j j j ~ k.k.3 k j g j j j             Z Z Z ",
"              j j j j j j j k j j j d p.y.y.~ f f k k j j j j ^ i.u.3 c c f k j j             Z Z Z ",
"m.m.m.m.M.M.} j j k j k j j j j j j k n a a ^ p.a.p j j j j j b n v ! e.p.p.              Z A Z Z Z ",
"m.m.M.m.M.M.| j j j k j k j j j j j j j j h E w.k.! h j j j j j h h p k.k.k.            Z Z Z Z Z Z ",
"M.m.m.m.M.M.| j j j j j j j j k j j j j k j E k.k.! h j j j j j l h p i.k.k.            Z Z Z Z A Z ",
"m.m.m.m.m.M.8...<.| m j j k j j j j j j j h E k.k.a./ / / / / / / / ` +.=.=.d.k.k.k.k.k.4 Z Z Z Z Z ",
"m.m.m.m.m.m.m.M.M.n.B g j j j j k h k j j j E k.k.k.w.k.k.k.k.k.w.w.f.o.X.o.d.k.k.k.k.k.0 Z Z Z Z Z ",
"m.m.M.m.M.m.m.m.M.v.B j j j j j k k j h j j E k.k.k.k.k.k.k.k.k.k.k.f.o.X.o.d.k.k.k.k.k.0 Z Z Z Z Z ",
"m.m.m.m.m.m.m.m.M.v.B j b W W W c h j Q W W a.k.k.%.+.=.&.k.k.k.k.k.s.#.$.&.s.k.k.k.k.k.0 Z Z Z Z Z ",
"      M.m.m.              k.w.u.v j k 3 k.k.k.k.k.O.X.X.@.k.k.k.k.k.k.k.k.k.k.k.k.k.k.k.0 Z Z Z Z Z ",
"      m.m.m.              k.k.u.v h h / k.k.k.k.k.O.X.X.@.k.k.k.k.k.k.k.k.k.k.k.k.k.k.k.0 Z Z Z Z Z ",
"      m.m.M.  Z Z Z Z Z , 9 9 9 R Q Q a.k.k.k.i.k.h.&.&.h.k.k.k.k.k.k.k.k.k.k.k.k.k.k.k.9 Z Z Z Z Z ",
"              Z Z Z Z Z Z Z Z A t.k.k.k.k.k.k.k.k.k.w.w.k.k.k.k.k.k.k.k.k.k.k.k.k.k.k.k.0 Z Z Z Z Z ",
"              Z Z A Z Z Z Z Z A t.k.k.k.k.k.k.k.k.k.k.k.k.k.k.k.k.k.k.k.k.k.k.k.k.k.k.k.0 A A Z A A ",
"              Z Z Z Z Z , 9 0 0 t.k.k.k.k.k.k.k.k.k.k.k.k.k.k.k.                                    ",
"        Z Z Z Z Z Z Z Z 5 y.k.k.k.k.k.k.k.k.k.k.k.k.k.k.k.k.k.k.                                    ",
"        A Z Z Z Z Z Z Z 5 u.k.k.k.k.k.k.k.k.k.k.k.k.k.k.k.k.k.k.                                    ",
"        Z Z Z Z Z Z Z Z :                                                                           ",
"        Z Z Z Z Z Z                                                                                 ",
"        Z Z Z Z Z Z                                                                                 ",
"        Z Z Z Z Z Z                                                                                 ",
"        Z Z Z Z Z Z                                                                                 "
};
