/* XPM */
static char *_afdc62824f647f2beb08cad52ae3e126bsUKuefruLcyIR2[] = {
/* columns rows colors chars-per-pixel */
"50 50 151 2 ",
"   c None",
".  c #000000",
"X  c #0D0B00",
"o  c #1A1601",
"O  c #1D1801",
"+  c #121212",
"@  c #221C00",
"#  c #272102",
"$  c #26220F",
"%  c #332B01",
"&  c #3A3417",
"*  c #252525",
"=  c #2A2929",
"-  c #3A3A3B",
";  c #423701",
":  c #443D1A",
">  c #524502",
",  c #574802",
"<  c #5E4F02",
"1  c #625202",
"2  c #756203",
"3  c #796503",
"4  c #5B5221",
"5  c #655922",
"6  c #6F6533",
"7  c #7B6E30",
"8  c #7D7030",
"9  c #444444",
"0  c #5B5B5C",
"q  c #64635D",
"w  c #6F6E6A",
"e  c #6F6F71",
"r  c #6F7073",
"t  c #737374",
"y  c #826C01",
"u  c #8B7402",
"i  c #977E00",
"p  c #987F00",
"a  c #9C8200",
"s  c #9A8414",
"d  c #A18701",
"f  c #A58A01",
"g  c #AA8E02",
"h  c #A68D0D",
"j  c #A88F0F",
"k  c #AE9102",
"l  c #AD930D",
"z  c #B19400",
"x  c #B69800",
"c  c #BC9D01",
"v  c #BA9D0C",
"b  c #AD9415",
"n  c #B09717",
"m  c #B19816",
"M  c #BA9F17",
"N  c #BFA004",
"B  c #BAA01D",
"V  c #97873A",
"C  c #A28F30",
"Z  c #BCA322",
"A  c #C09F00",
"S  c #C4A302",
"D  c #C9A701",
"F  c #CCAA01",
"G  c #D1AE00",
"H  c #D6B201",
"J  c #D9B402",
"K  c #DEB900",
"L  c #DFBD15",
"P  c #D3B419",
"I  c #D4B415",
"U  c #E2BC00",
"Y  c #E0BE16",
"T  c #C7AC28",
"R  c #CAAF2C",
"E  c #CAB02F",
"W  c #CDB332",
"Q  c #D3B938",
"!  c #E7C100",
"~  c #EBC400",
"^  c #F0C700",
"/  c #F4CB00",
"(  c #F8CF00",
")  c #FED500",
"_  c #FFD800",
"`  c #FFD60A",
"'  c #E4C21D",
"]  c #FED717",
"[  c #FED815",
"{  c #FDD71A",
"}  c #FFDC1C",
"|  c #DBC13F",
" . c #E5C426",
".. c #E6C629",
"X. c #F1CF27",
"o. c #FED923",
"O. c #FAD728",
"+. c #E5C631",
"@. c #E7C933",
"#. c #E8CA37",
"$. c #E0C438",
"%. c #EDCF3E",
"&. c #FDDB34",
"*. c #F2D33E",
"=. c #FFDF3F",
"-. c #82817F",
";. c #AFA573",
":. c #DFC544",
">. c #E0C647",
",. c #ECCF41",
"<. c #E4CA48",
"1. c #F2D544",
"2. c #FDDE46",
"3. c #F3D64A",
"4. c #F5D84B",
"5. c #E0C956",
"6. c #E6CD59",
"7. c #EDD250",
"8. c #F3D956",
"9. c #FBDF54",
"0. c #F4DA59",
"q. c #F9DE5D",
"w. c #FDE050",
"e. c #FCE15D",
"r. c #FEE362",
"t. c #FDE56E",
"y. c #FBE574",
"u. c #FDE77B",
"i. c #969697",
"p. c #98989A",
"a. c #AEA991",
"s. c #B5B2A5",
"d. c #B0B0B1",
"f. c #B5B6BA",
"g. c #F9E584",
"h. c #FEED9A",
"j. c #F3E496",
"k. c #DDD3A2",
"l. c #E4DBAA",
"z. c #E4DCB3",
"x. c #FDEFAF",
"c. c #FEF1AF",
"v. c #FDF0B0",
"b. c #FFF3BA",
"n. c #D9D7D0",
"m. c #EAE4C3",
"M. c #E4E4E5",
"N. c #E5E6E9",
"B. c #FFFAE6",
"V. c #FFFDEA",
"C. c #FAF6E2",
/* pixels */
"                                                                                                    ",
"                                                                                                    ",
"                                                                                                    ",
"                                                                                                    ",
"                                                                                                    ",
"                                                                                                    ",
"                                                                                                    ",
"                                                                                                    ",
"                                      . . . . . . . . . . .                                         ",
"                                . . & V s a a u y y y y 2 , . .                                     ",
"                                $ $ 5 9.} _ _ ^ K K K H F u O O O                                   ",
"                            . 4 6.6.,.` _ ) ) ) ) ) ~ H J S k k u .                                 ",
"                          + e ;.r.r.2.) K D F F F F S x G H D S h 1 %                               ",
"                        + = n.b.e.0.1./ c a a a a a a d S G G S c S > X                             ",
"                      . e n.g.t.q.Z h g A F F G F F F D g d d S F c h u X                           ",
"                      0 a.b.y.7.Q v z k P  . . . . .Y H x k z c S D S g , %                         ",
"                  . * M.v.e.q.Q a D J J %.q.q.q.q.q.@.G H H H g f G D A A < .                       ",
"                  . * M.v.0.Z v D #.3.3.T n n n n b l g ~ ~ H F A g A F A < .                       ",
"                  - q m.h.8.h k J 3.e.2.M i i g x x f a H U U K D p A J A 3 %                       ",
"                . i.C.y.r.8.l z J 3.2.` c i i G ) ) G i a c ( U D p c G A v h @ .                   ",
"                . p.B.t.| B S P ,.O.] ( c i i G ) ) G i i x ) U G A x z F D h O .                   ",
"                . p.B.t.E a D  .e.] ) ) c i i G ) ) H i i c ) ~ J J z d G F k O .                   ",
"                . p.B.y.E a D  .e.] ) ) c i i G _ _ G i i x ) ) / J k d G D g @ .                   ",
"                . p.B.t.E a F  .e.] ) ) c i i z S S x a S K ) ) / J k d G F g O .                   ",
"                . p.B.t.E a F  .e.] ) ) x i a a f f f k ~ ) ) ) ( H z d G D g @ .                   ",
"                . p.B.t.E a F  .e.{ ) ) c a a F / / / / ) ) ) ) / H z d G F h O .                   ",
"                . p.B.t.E a F  .e.] ) ) x a i F ) ) ) ) ) ) ) / U K z d G D g O .                   ",
"                . p.B.t.W d D  .0.{ ) _ x a a G _ ) ) ) ) ) ) U G G z g G D g @ .                   ",
"                . p.V.t.8.<.l c L *.&._ c a i G ) ) ) ) ) ) ) U D g c D S S l O .                   ",
"                . t s.j.u.0.j k H 3.w.o.v i i G _ ) ) ) ) ) ^ K S a c G v a 2 O                     ",
"                  . = M.x.8.b k H 1.r.e.Z a a H ) ) ) ) ) ~ H H D a c G S < .                       ",
"                  . * N.c.0.<.E f I ' ' | :.:.3.2.2.X.U U U H x k S S S S < .                       ",
"                    * d.k.y.t.| m N D S +.4.3.3.3.4...H D D S z z F S x i ; .                       ",
"                      X i.C.u.0.8.m a a S J J J J J J G g a a S F S v d o X                         ",
"                        9 e z.h.e.' H H c z z z k k k k x c c G F S 3 ;                             ",
"                          + f.k.e.o.` ) S f f g f k f f D J J G S d ; .                             ",
"                            + 6 r.e.=.) ) / / / ( ( U G H F S S i o                                 ",
"                              : 8 7 C &.[ _ _ / ~ ~ U H G f < < > X                                 ",
"                                . . : 5.' ~ ~ G S S S S z 2 . . .                                   ",
"                                      $ # # # @ @ @ O @ O O                                         ",
"                                      . . . . . . . . . .                                           ",
"                                                                                                    ",
"                                                                                                    ",
"                                                                                                    ",
"                                                                                                    ",
"                                                                                                    ",
"                                                                                                    ",
"                                                                                                    ",
"                                                                                                    ",
"                                                                                                    "
};
