/* XPM */
static char *_6645fe807bf462ea617560b1f019acbL7Rs6zem2aZkH9Vt[] = {
/* columns rows colors chars-per-pixel */
"50 50 39 1 ",
"  c None",
". c #312B2B",
"X c #312D2D",
"o c #312D2E",
"O c #312E2E",
"+ c #312E2F",
"@ c #312F2F",
"# c #312F30",
"$ c #313031",
"% c #313335",
"& c #303B40",
"* c #303D43",
"= c #303F45",
"- c #304148",
"; c #30444C",
": c #2F4852",
"> c #2F4A55",
", c #2F4B56",
"< c #2F4C58",
"1 c #2F5868",
"2 c #2E6477",
"3 c #2E677B",
"4 c #2D7A95",
"5 c #2BABD7",
"6 c #2AACD9",
"7 c #2AAFDC",
"8 c #2AB2E0",
"9 c #2AB4E3",
"0 c #2AB6E5",
"q c #2AB6E6",
"w c #2AB7E7",
"e c #2ABAEB",
"r c #2ABBEC",
"t c #2ABEF0",
"y c #29BFF2",
"u c #2ABFF2",
"i c #2ABFF3",
"p c #2AC0F3",
"a c #2AC0F4",
/* pixels */
"                                                  ",
"                                                  ",
"                  uuuuuuuuuuuuuu                  ",
"                  uuuuuuuuuuuuuu                  ",
"                  uuuuuuuuuuuuuu                  ",
"           uuuuuuuuuuuuuuuuuuuuuuuuuuuu           ",
"           yuuyuuuuuuuuuuuuuuuuuuuuuuuu           ",
"           yyyyuuuuuuuuuuuuuuuuuuuuuuuu           ",
"          uuuuuuuuuuuuuuuuuuuuuuuuuuuuu           ",
"       uuuuuuuuuuuuuuuuuuuuuuuuuuuuuuuuuuuu       ",
"       uuuuuuuuuuuuuuuuuuuuuuuuuuuuuuuuuuuu       ",
"       uuuuuuuuuuuuuuuuuuuuuuuuuuuuuuuuuuuu       ",
"    uuuuuuuuuuu      uuuuuuuuuuuuuuu       uuu    ",
"    uuuuuuuuuu       uuuuuuuuuuuuuuu       uuu    ",
"    uuuuuuuuuu       uuuuuuuuuuuuuuu       uuu    ",
"    uuuuuuu              uuuuuuu                  ",
"    uuuuuuu              puuuuuu                  ",
"    uuuuuuu              puuuuuu                  ",
"    uuuuuuu              ruuuuuu                  ",
"    uuuuuuu       $$$$$@-6puuuuu       $$$$$$$$   ",
"    uuuuuuu       $$$$$@=5auuuuu       $$$$$$$#   ",
"   uuuuuuuu       $$$$@+=5auuuuu       $$$$$$#&   ",
"uuuuuuuuuuu       $$$$$+=5auuuuu       $$$$$$+2puu",
"uuuuuuuuuuu       $$$+++*5auuuuu       $$$#++.3uuu",
"uuuuuuuuuuu       $$$;<,17puuuuu        $#%:,,4uuu",
"uuuuuuuuuuuuuu       8qqquuuuuuuuuuu       9qqruuu",
"uuuuuuuuuuuuuu       auuuuuuuuuuuuuu       auiuuuu",
"uuuuuuuuuuuuuuu      uuuuuuuuuuuuuuu       uuuuuuu",
"uuuuuuuuuuuuuuuuuuuuuuuuuuuuuuuuuuuuuuuuuuuuuuuuuu",
"uuuuuuuuuuuuuuuuuuuuuuuuuuuuuuuuuuuuuuuuuuuuuuuuuu",
"uuuuuuuuuuuuuuuuuuuuuuuuuuuuuuuuuuuuuuuuuuuuuuuuuu",
"uuuuuuuuuuuuuuuuuuuuuuuuuuuuuuuuuuuuuuuuuuuuuuuuuu",
"uuuuuuuuuuuuuuuuuuuuuuuuuuuuuuuuuuuuuuuuuuuuuuuuuu",
"uuuuuuuuuuuuuuuuuuuuuuuuuuuuuuuuuuuuuuuuuuuuuuuuuu",
"uuuuuuuuuuuuuuuuuuuuuuuuuuuuuuuuuuuuuuuuuuuuuuuuuu",
"uuuuuuuuuuuuuuuuuuuuuuuuuuuuuuuuuuuuuuuuuuuuuuuuuu",
"uuuuuuuuuuuuuuuuuuuuuuuuuuuuuuuuuuuuuuuuuuuuuuuuuu",
"uuuuuuuuuuuuuuuuuuuuuuuuuuuuuuuuuuuuuuuuuuuuuuuuuu",
"uuuuuuuuuuuuuuuuuuuuuuuuuuuuuuuuuuuuuuuuuuuuuuuuuu",
"uuuuuuuuuuuuuuuuuuuuuuuuuuuuuuuuuuuuuuuuuuuuuuuuuu",
"uuuuuuuuuuuuuuuuuuuuuuuuuuuuuuuuuuuuuuuuuuuuuuuuuu",
"uuuuuuu   uuuuuuuuuuuu      uuuuuuuuuuu    uuuuuuu",
"uuuuuuu    uuuuuuuuuu        uuuuuuuuuu    uuuuuuu",
"uuuuuuu    uuuuuuuuuu        uuuuuuuuuu    uuuuuuu",
"uuuuuu     uuuuuuuuuu        uuuuuuuuuu     uuuuuu",
"uuu           uuuuuuu        uuuuuuu           uuu",
"uuu           uuuuuuu        uuuuuuu           uuu",
"uuu            uuuuuu        uuuuuu            uuu",
"                                                  ",
"                                                  "
};
