/* XPM */
static char *f0daecc918b54963cc550b1511015f30MEZJ0tRnypjPp2bO[] = {
/* columns rows colors chars-per-pixel */
"50 50 182 2 ",
"   c None",
".  c #395BAB",
"X  c #3B5CAB",
"o  c #3B5DAB",
"O  c #3C5DAB",
"+  c #3C5DAC",
"@  c #3C5EAC",
"#  c #3D5FAC",
"$  c #3E5FAC",
"%  c #3E5EAD",
"&  c #3E5FAD",
"*  c #3F5FAD",
"=  c #3F60AD",
"-  c #436CAF",
";  c #456DAF",
":  c #456DB0",
">  c #456EB0",
",  c #4B6AB2",
"<  c #4C6BB3",
"1  c #4D6CB3",
"2  c #4B70B2",
"3  c #4B7AB2",
"4  c #5172B5",
"5  c #5673B7",
"6  c #5874B8",
"7  c #5875B8",
"8  c #657FBD",
"9  c #569A95",
"0  c #569B96",
"q  c #579B96",
"w  c #579C96",
"e  c #579C97",
"r  c #5591B2",
"t  c #5C9EBA",
"y  c #5EA9A4",
"u  c #5EA3BA",
"i  c #60ACA6",
"p  c #62B0AA",
"a  c #62B1AA",
"s  c #62B1AB",
"d  c #63B2AC",
"f  c #64B3AD",
"g  c #64B4AD",
"h  c #64B4AE",
"j  c #65B4AE",
"k  c #65B5AE",
"l  c #66B8B1",
"z  c #67B8B2",
"x  c #67B9B2",
"c  c #67B9B3",
"v  c #67BAB3",
"b  c #68BAB4",
"n  c #68BBB4",
"m  c #68BBB5",
"M  c #69BDB6",
"N  c #6ABEB7",
"B  c #6ABFB8",
"V  c #6BBFB9",
"C  c #69BCBF",
"Z  c #6BC0B9",
"A  c #6BC0BA",
"S  c #6CC1BA",
"D  c #6CC1BB",
"F  c #6CC2BB",
"G  c #6CC2BC",
"H  c #6DC3BC",
"J  c #6DC4BC",
"K  c #6DC4BD",
"L  c #6EC5BE",
"P  c #6EC5BF",
"I  c #6EC6BF",
"U  c #78C1BB",
"Y  c #6ABDC0",
"T  c #6BBDC0",
"R  c #6BBFC0",
"E  c #6BC7C0",
"W  c #6EC4C1",
"Q  c #6FC7C0",
"!  c #6FC7C1",
"~  c #6DC8C1",
"^  c #6EC8C1",
"/  c #6FC8C1",
"(  c #6EC9C1",
")  c #6FC9C1",
"_  c #6FC8C2",
"`  c #6FC9C2",
"'  c #75C6C4",
"]  c #70C8C1",
"[  c #70C9C2",
"{  c #71C9C2",
"}  c #71C9C3",
"|  c #70CAC2",
" . c #71CAC2",
".. c #71CBC2",
"X. c #70CAC3",
"o. c #71CAC3",
"O. c #71CBC3",
"+. c #72CAC3",
"@. c #74CBC4",
"#. c #75CBC4",
"$. c #76CBC4",
"%. c #79CCC6",
"&. c #7DCEC8",
"*. c #7ECEC8",
"=. c #7FCFC8",
"-. c #7FCFC9",
";. c #9AACD4",
":. c #9BACD4",
">. c #9CADD5",
",. c #96B1D2",
"<. c #A3B3D8",
"1. c #A9B8DA",
"2. c #80CFC9",
"3. c #81CFC9",
"4. c #8DCACE",
"5. c #81D0C9",
"6. c #81D0CA",
"7. c #86D1CB",
"8. c #87D2CC",
"9. c #8BD3CD",
"0. c #8CD4CE",
"q. c #92D6D1",
"w. c #94D7D1",
"e. c #96D7D2",
"r. c #98D8D3",
"t. c #99D8D3",
"y. c #98D9D3",
"u. c #99D9D3",
"i. c #99D9D4",
"p. c #9EDAD5",
"a. c #A4DDD8",
"s. c #AEE0DC",
"d. c #B4E3DF",
"f. c #B5E3DF",
"g. c #BBDCE2",
"h. c #B6E4E0",
"j. c #BBE5E2",
"k. c #BDE6E3",
"l. c #BFE7E4",
"z. c #CCD5E9",
"x. c #C2E7E4",
"c. c #CAEBE9",
"v. c #CDEDEA",
"b. c #CFEDEA",
"n. c #CFEDEB",
"m. c #D1EEEB",
"M. c #D2EEEC",
"N. c #D3EEEC",
"B. c #D3EFEC",
"V. c #DAF1EF",
"C. c #DCE2F0",
"Z. c #DDE3F0",
"A. c #DDF2F1",
"S. c #DEF3F1",
"D. c #E1E6F2",
"F. c #E6ECF4",
"G. c #EAEDF6",
"H. c #EBEFF7",
"J. c #ECEEF7",
"K. c #E0F3F2",
"L. c #E2F4F3",
"P. c #EDF0F7",
"I. c #E8F6F5",
"U. c #E9F7F6",
"Y. c #EAF7F6",
"T. c #EBF7F6",
"R. c #EDF8F7",
"E. c #EEF8F8",
"W. c #EEF9F8",
"Q. c #EFF9F8",
"!. c #EEFAF8",
"~. c #F4F6FA",
"^. c #F0F9F8",
"/. c #F0F9F9",
"(. c #F2FAF9",
"). c #FBFCFD",
"_. c #FBFDFD",
"`. c #FCFEFE",
"'. c #FDFEFE",
"]. c #FEFFFE",
"[. c #FEFFFF",
"{. c white",
/* pixels */
"                                                                                                    ",
"                                                                                                    ",
"                                                                                                    ",
"                                                                                                    ",
"                                                                                                    ",
"                                                                                                    ",
"                                      h [ ] Q / / / / / / Q                                         ",
"                                      h [ [ [ [ [ [ [ [ [ [ a                                       ",
"                              N n n   A [ [ [ [ [ [ [ [ [ [ N   n n n                               ",
"                            P / [ [ [ [ [ [ [ [ [ [ [ [ [ [ [ [ [ [ [ H                             ",
"                            P [ [ [ [ [ [ [ [ [ [ [ [ [ [ [ [ [ [ [ [ H                             ",
"                      h A A / [ [ [ [ [ [ [ [ [ [ [ [ [ [ [ [ [ [ [ [ / A D                         ",
"                      N / [ [ [ [ / / ` / / X.[ [ [ [ [ [ [ [ [ [ / / / / / x                       ",
"                      N [ [ / / #.3.5.5.5.3.#.[ [ [ [ [ [ [ [ [ [ *.5.5.5.5.U                       ",
"                  P P / [ [ [ / w.U.!.!.!.U.q./ [ [ [ [ [ / [ [ #.m.(.!.!.(.x.P P                   ",
"                h [ [ [ [ [ / E t.[.[.[.[.`.e.E / [ [ [ [ / / / #.A.[.[.[.[.c./ /                   ",
"                h [ [ [ ] #.w.t.h.[.[.[.[.[.f.t.w.#.[ [ [ [ 8.i.p.U.[.[.[.[.V.t.t.                  ",
"                h [ [ [ ] 3.U.[.[.[.[.[.[.[.[.).U.*./ [ [ / k.[.[.[.[.[.[.[.[.[.).                  ",
"                h [ [ [ / 3.!.[.[.[.[.[.[.[.[.[.!.3./ [ / / k.[.[.[.[.[.[.[.[.[.[.                  ",
"                h [ [ X./ 5.E.[.[.[.[.z.:.>.>.:.,.' [ [ [ / x.[.[.[.[.P.<.:.>.>.>.                  ",
"                h [ [ [ ` 5.!.[.[.[.[.:.. O X @ : R O.[ [ / l.[.[.[.[.C., X @ X O                   ",
"                f [ [ [ / 5.!.[.[.[.[.>.@ * * * : R / [ [ / x.[.[.[.[.C.1 * * * =                   ",
"            A D P [ [ [ / 5.!.[.[.[.[.:.@ - X * : R [ [ / / k.[.[.[.[.C.1 * - X = r P Z             ",
"            Q [ [ [ [ [ / 3.!.[.[.[.[.:.O @ X % : R [ [ [ / x.[.[.[.[.C.1 @ @ * @ t [ P             ",
"            Q [ [ [ [ [ [ 3.A.R.(.[.[.1.5 7 2 ; 3 R [ [ [ / h.!.T.`.[.D.8 6 4 : : u O.I             ",
"            Q [ [ [ [ [ [ [ *.*.a.[.[.~.G.F.4.C R Q [ [ [ [ %.*.9.K.[.).J.J.g.T R Q [ I             ",
"            Q [ [ [ [ [ [ [ [ / t.[.[.[.[.[.t./ / X.[ [ [ [ / / #.K.[.[.[.[.b.#./ / [ P             ",
"            Q [ [ [ [ [ [ [ [ / 0.b.M.M.M.m.0.[ ` ` [ [ [ [ [ X.#.j.N.M.m.N.a.#.[ [ [ P             ",
"            Q [ [ [ [ [ [ [ [ [ [ [ #.[ X.X.[ [ [ [ [ [ [ [ [ [ [ X.X.#.#.X.X.[ [ [ [ Q             ",
"            Q [ [ [ [ [ [ [ [ [ [ [ [ [ [ [ [ [ [ [ [ [ [ [ [ [ [ [ [ [ [ [ [ [ [ [ / Q             ",
"            Q [ [ [ [ [ [ [ [ [ [ [ [ [ [ [ [ [ [ [ [ [ [ [ [ [ [ [ [ [ [ [ [ [ [ [ / Q             ",
"            Q [ [ [ [ [ [ [ [ [ [ [ [ [ [ [ [ [ [ [ [ [ [ [ [ [ [ [ [ [ [ [ [ [ [ / / Q             ",
"            Q [ [ [ [ [ [ [ [ [ [ [ [ [ [ [ [ [ [ [ [ [ [ [ [ [ [ [ [ [ [ [ [ [ [ [ [ Q             ",
"            Q [ [ [ [ [ [ [ [ [ [ [ [ [ [ [ [ [ [ [ [ [ [ [ [ [ [ [ [ [ [ [ [ [ [ [ / P             ",
"            Q [ [ [ [ [ [ [ [ [ [ [ [ [ [ [ [ [ [ [ [ [ [ [ [ [ [ [ [ [ [ [ [ [ [ [ [ P             ",
"            Q [ [ [ [ [ [ [ [ [ [ [ [ [ [ [ [ [ [ [ [ [ [ [ [ [ [ [ [ [ [ [ [ [ [ [ [ Q             ",
"            Q [ [ [ [ [ [ [ [ [ [ [ [ [ [ [ [ [ [ [ [ [ [ [ [ [ [ [ [ [ [ [ [ [ [ [ [ I             ",
"            Q [ [ [ [ [ [ X.[ [ [ [ [ [ [ / O.[ [ [ X.X.[ [ [ [ [ [ [ / X.[ X.[ [ [ [ P             ",
"            Q [ [ [ [ x a f Q / [ [ [ [ [ [ x a d a a v [ [ [ [ [ [ [ P d a n [ [ [ [ P             ",
"            Q [ [ [ /       P [ [ [ [ [ [ /             / [ [ [ [ [ [ H       ] [ [ [ P             ",
"            / [ [ [ [       H [ [ [ [ [ [ I             I [ [ [ [ / / P       / [ [ / I             ",
"            I O.x 9 9         9 i / [ [ [ [             [ [ [ [ I y w         w w n O.P             ",
"            P [ f                 / [ / [ I             / [ / [ [                 x [ P             ",
"            D P a                 A P P P A             A P P P D                 h P A             ",
"                                                                                                    ",
"                                                                                                    ",
"                                                                                                    ",
"                                                                                                    ",
"                                                                                                    ",
"                                                                                                    "
};
