/* XPM */
static char *cf6da9a914d84ea383752169b97351220uoZv1Qm8Z0LjLsG[] = {
/* columns rows colors chars-per-pixel */
"50 50 220 2 ",
"   c None",
".  c #C4211D",
"X  c #C6211E",
"o  c #C9211E",
"O  c #CC221E",
"+  c #CC221F",
"@  c #CD221F",
"#  c #CF221F",
"$  c #CF231F",
"%  c #D2231F",
"&  c #E7241F",
"*  c #ED211D",
"=  c #ED221E",
"-  c #ED231F",
";  c #EF231F",
":  c #D42320",
">  c #D52420",
",  c #D62420",
"<  c #D72420",
"1  c #D92420",
"2  c #DB2420",
"3  c #DC2421",
"4  c #DC2521",
"5  c #DD2521",
"6  c #DE2521",
"7  c #DF2521",
"8  c #DC312E",
"9  c #D62C33",
"0  c #D62E35",
"q  c #D72F36",
"w  c #DB2D32",
"e  c #D92E33",
"r  c #D82E34",
"t  c #E02521",
"y  c #E12622",
"u  c #E22622",
"i  c #E32622",
"p  c #E72522",
"a  c #E42622",
"s  c #E52622",
"d  c #E62623",
"f  c #E72723",
"g  c #E82623",
"h  c #E82723",
"j  c #E92723",
"k  c #EA2723",
"l  c #EB2723",
"z  c #EC2521",
"x  c #ED2521",
"c  c #EE2420",
"v  c #EE2521",
"b  c #EF2621",
"n  c #ED2622",
"m  c #EC2723",
"M  c #ED2723",
"N  c #EE2622",
"B  c #EE2722",
"V  c #EF2722",
"C  c #EE2723",
"Z  c #EF2723",
"A  c #EC2724",
"S  c #ED2724",
"D  c #EE2724",
"F  c #EC2823",
"G  c #EE2823",
"H  c #EB2826",
"J  c #EC2824",
"K  c #ED2824",
"L  c #EE2824",
"P  c #EF2824",
"I  c #EE2925",
"U  c #EE2A26",
"Y  c #EE2B27",
"T  c #E62B2A",
"R  c #EE2B28",
"E  c #EE2C28",
"W  c #EE2C29",
"Q  c #EE2D29",
"!  c #F02722",
"~  c #F12722",
"^  c #EE312D",
"/  c #EF322E",
"(  c #EE332F",
")  c #EF3330",
"_  c #EF3632",
"`  c #EF3633",
"'  c #EF3733",
"]  c #EF3834",
"[  c #E5393A",
"{  c #F03F3B",
"}  c #F0403D",
"|  c #F0423E",
" . c #F0423F",
".. c #BA3B4F",
"X. c #B43E55",
"o. c #9E415E",
"O. c #F04340",
"+. c #F14D4A",
"@. c #F14E4B",
"#. c #F14F4C",
"$. c #F1514D",
"%. c #F1524F",
"&. c #F15451",
"*. c #F15552",
"=. c #F05653",
"-. c #F15653",
";. c #F25653",
":. c #F25B58",
">. c #F25C59",
",. c #F25D59",
"<. c #F2605D",
"1. c #DB676F",
"2. c #F36865",
"3. c #F46A66",
"4. c #F4726F",
"5. c #F57F7D",
"6. c #F5817F",
"7. c #3B5CAB",
"8. c #3B5DAB",
"9. c #3D5EAB",
"0. c #3C5EAC",
"q. c #3D5EAC",
"w. c #3C5FAD",
"e. c #3D5FAD",
"r. c #3E5FAC",
"t. c #3F60AC",
"y. c #3E60AD",
"u. c #3F60AD",
"i. c #3D60AE",
"p. c #3C60AF",
"a. c #52589B",
"s. c #52599D",
"d. c #53599D",
"f. c #535A9D",
"g. c #51599E",
"h. c #54599C",
"j. c #65538F",
"k. c #4060AC",
"l. c #5361A5",
"z. c #5367AC",
"x. c #4766B0",
"c. c #4767B0",
"v. c #4968B1",
"b. c #5270B5",
"n. c #5371B6",
"m. c #5471B5",
"M. c #5D79B9",
"N. c #F68987",
"B. c #F39492",
"V. c #F69492",
"C. c #F79B9A",
"Z. c #DF9CA5",
"A. c #F7A1A0",
"S. c #F7A2A0",
"D. c #F7A2A1",
"F. c #F8A5A4",
"G. c #F9A8A5",
"H. c #F9B2B1",
"J. c #F9B9B7",
"K. c #F9BBB9",
"L. c #F9BEBC",
"P. c #FAC1BF",
"I. c #B1A6C4",
"U. c #A4B4D8",
"Y. c #A5B4D8",
"T. c #A5B5D8",
"R. c #A8B7D9",
"E. c #A8B6DA",
"W. c #A8B7DA",
"Q. c #A8B8DB",
"!. c #ADBBDC",
"~. c #AFBDDD",
"^. c #FAC1C0",
"/. c #FAC3C1",
"(. c #FAC3C2",
"). c #FAC5C4",
"_. c #FBCFCE",
"`. c #FBD3D2",
"'. c #FBD5D4",
"]. c #FBD6D5",
"[. c #FCD6D5",
"{. c #FCD8D7",
"}. c #FBD9D8",
"|. c #FCD8D8",
" X c #FCD9D8",
".X c #FCDAD9",
"XX c #FCDBDA",
"oX c #FCDCDC",
"OX c #D5DCED",
"+X c #D7DDEE",
"@X c #DAE0EF",
"#X c #FFE8E6",
"$X c #FDE8E8",
"%X c #FDE9E8",
"&X c #FDEAE9",
"*X c #FDEDEC",
"=X c #E5E6F0",
"-X c #E5EAF4",
";X c #E7EBF4",
":X c #E5EDF7",
">X c #ECEFF7",
",X c #FDF2F2",
"<X c #FEF4F3",
"1X c #FEF4F4",
"2X c #FEF5F5",
"3X c #FEF6F5",
"4X c #FEF6F6",
"5X c #FEF7F7",
"6X c #F3F5FA",
"7X c #FEF8F8",
"8X c #FEF9F9",
"9X c #FEFAFA",
"0X c #F9FAFC",
"qX c #FFFCFC",
"wX c #FFFDFD",
"eX c #FEFEFE",
"rX c #FFFEFE",
"tX c #FFFFFE",
"yX c #FEFFFF",
"uX c white",
/* pixels */
"                                                                                                    ",
"                                                                                                    ",
"                                                                                                    ",
"                                                                                                    ",
"                                                                                                    ",
"                                                                                                    ",
"                                        l l l l l l l l l l                                         ",
"                                      : K K K K K K K K K K %                                       ",
"                                      u P K P K K K K P K P 5                                       ",
"                            d F K K K K K P K P P K P K P K K K K K K d                             ",
"                            d P K K P K P K P K K P K P K P K P K P K d                             ",
"                        u 5 l K P K K P K P K P P K P K P K P K K K K A 5 u                         ",
"                      5 K K D K D ! D v D v K K P K P K K P K P K P v v v K 2                       ",
"                      5 K K D D K ] ` ] _ _ Q K K P K P P K P K K ) ] ] ` _ 8                       ",
"                  d d F P K K v &._.].].[.'.>.v P K P K P K K ! / H.XX{.[.XXV.d v                   ",
"                  K K K K ! ! = :.9XwXwXwXwX2.= v ! K P K K v v ^ ].wXwXwXwXF.v v                   ",
"                  K P K K K +.=.5.9XwXwXwXwXN.&.$.Q K K P D | ;.<.oXwXwXwXwXJ.=.=.                  ",
"                  K K P P ` _.4X4XwXwXwXwXwX9X4XXX{ ! K K ! C.5X2XwXwXwXwXwX0X2X,X                  ",
"                  K P K K ] XXwXwXwXwXwXwXwXwXwX#X| v K K K D.wXwXwXwXwXwXwXwXwXwX                  ",
"                  K K K ! ] XXwXwXwXwX+XE.Q.Q.Q.I.[ v K K v D.wXwXwXwX>X!.Q.Q.Q.Q.                  ",
"                  K K K K ] XXwXwXwXwXT.0.w.w.w.a.r v D K v D.wXwXyXwXOXx.w.7.w.7.                  ",
"                  K P K K ] [.wXwXwXwXT.w.y.k.i.h.r P D D v D.wXwXwXwXOXv.w.k.k.k.                  ",
"            5 d d P K P v ] XXwXwXwXwXT.w.k.k.w.h.r F K K v D.wXwXwXwXOXv.k.y.y.k.o.d %             ",
"            l K K K P K D ` XXwXwXwXwXT.7.w.w.w.h.r v D K K D.wXwXwXwXOXv.7.w.y.k.X.P l             ",
"            l K P K P K ! ` ).&X*XwXwX~.b.m.l.g.j.w D D l l V.&X$X9XwX@XM.n.z.g.h...F f             ",
"            l K K P K P K K { | 4.9XwX6X-X=X1.9 w H D D D v ] O.$.}.wX0X;X:XZ.0 q T P l             ",
"            l K P K P K P K ! v >.9XwXwXwXwX2.! F v K D A D v v ( ].wXwXwXwXG.- P v K d             ",
"            l K K P K P K P K v +.K./././.L.=.l K D K D D D K H ^ D.(.P./.(.N.v K K K l             ",
"            l K P K P K P K P K K Q Q Q Q Q K v A D A D A D A v K R Q Q Q Q K K K K K l             ",
"            l K K P K P K P K P K K D ! v l K D D A D A D A K H A D v H v K K K K K K f             ",
"            l K P K P K P K P K P K K K A D A D A D A D A D D D D A D A K D K K K K K l             ",
"            l K K P K P K P K P K P K P D A D A D A D A D A D A A D A D D D K K K K K f             ",
"            l K K K K P K P K P P K P K K D D A D A D A D A D A D A D A D A D K K K K l             ",
"            l K K K P K P K P K K P K P D D A D A D A D A D A D A D A D A D A K K K K d             ",
"            l K K P K P K P K P P K P K D A D A D A D A D A D A D A D A D A D K K K K d             ",
"            l K P K P K P K P K K P K P D D A D A D A D A D A D A D A D A D D K K K K l             ",
"            l K K P K K K P K P P K P K D D D K D A D D D D D A D A D D D D D K K K K f             ",
"            l K P K P K P P P K K P K P D D K K K K K K A D A D A D K K K K K K K K K l             ",
"            l K K P K 5 + $ l K P K P K D v , + + + + 2 v K D D D v K f # + 5 K K K K f             ",
"            d K P K K       d K K P K K F H             H F K K H F K d     o K K K K l             ",
"            l K K F F       u D F K K K P F             D P K P K l D u       l F K F l             ",
"            l P 5               X H K P K v             D K P K l X               5 F l             ",
"            l F 5                 v K F K H             D K F F l                 5 P d             ",
"            5 d ,                 u d d d d             u d d d u                 , d u             ",
"                                                                                                    ",
"                                                                                                    ",
"                                                                                                    ",
"                                                                                                    ",
"                                                                                                    ",
"                                                                                                    "
};
