/* XPM */
static char *ab24757fe4934e79de1ce31eb0a6b522NqDtZBBJXZ8DboWE[] = {
/* columns rows colors chars-per-pixel */
"50 50 131 2 ",
"   c None",
".  c #030300",
"X  c #080700",
"o  c #0D0B00",
"O  c #0D0C0A",
"+  c #100F0A",
"@  c #161300",
"#  c #1A1700",
"$  c #13110A",
"%  c #191709",
"&  c #1E1B09",
"*  c #231E00",
"=  c #201D09",
"-  c #262100",
";  c #252109",
":  c #2A2608",
">  c #2F2908",
",  c #332C00",
"<  c #342E08",
"1  c #3D3501",
"2  c #3F3807",
"3  c #3C3508",
"4  c #413903",
"5  c #493F00",
"6  c #463D08",
"7  c #4E4402",
"8  c #524706",
"9  c #544A06",
"0  c #5B4F07",
"q  c #5D5104",
"w  c #635500",
"e  c #665900",
"r  c #6C5E04",
"t  c #6F6105",
"y  c #746501",
"u  c #776804",
"i  c #7C6C02",
"p  c #806F04",
"a  c #827102",
"s  c #897703",
"d  c #8C7A02",
"f  c #917E03",
"g  c #958202",
"h  c #9A8502",
"j  c #9E8903",
"k  c #A18C02",
"l  c #A69102",
"z  c #AA9402",
"x  c #B39C01",
"c  c #BDA402",
"v  c #C1A701",
"b  c #C6AB01",
"n  c #C4AA02",
"m  c #C4AA00",
"M  c #C4AA01",
"N  c #C8AD00",
"B  c #C8AE00",
"V  c #C9AE00",
"C  c #C8AE00",
"Z  c #CBB000",
"A  c #CEB200",
"S  c #CEB300",
"D  c #CDB202",
"F  c #CFB302",
"G  c #CFB402",
"H  c #CEB200",
"J  c #D0B500",
"K  c #D1B500",
"L  c #D2B600",
"P  c #D3B700",
"I  c #D0B502",
"U  c #D2B602",
"Y  c #D2B600",
"T  c #D5B900",
"R  c #D8BB00",
"E  c #D9BC00",
"W  c #DABD00",
"Q  c #DBBE00",
"!  c #DCBE00",
"~  c #DCBF00",
"^  c #DDBF00",
"/  c #DABD00",
"(  c #DDC001",
")  c #DEC000",
"_  c #DEC001",
"`  c #E2C300",
"'  c #E4C500",
"]  c #E5C600",
"[  c #E5C700",
"{  c #E5C601",
"}  c #E6C700",
"|  c #E4C500",
" . c #E7C800",
".. c #E7C900",
"X. c #E7C800",
"o. c #E8C800",
"O. c #E8C900",
"+. c #E9C900",
"@. c #E9CA01",
"#. c #EACB00",
"$. c #EBCB00",
"%. c #EACB01",
"&. c #EBCC00",
"*. c #EBCC02",
"=. c #ECCC00",
"-. c #EFCF01",
";. c #EACA00",
":. c #EFD002",
">. c #EFD002",
",. c #F0D000",
"<. c #F1D000",
"1. c #F2D201",
"2. c #F0D102",
"3. c #F4D300",
"4. c #F6D500",
"5. c #F2D205",
"6. c #F4D404",
"7. c #F4D504",
"8. c #F6D605",
"9. c #F3D201",
"0. c #F8D700",
"q. c #F8D700",
"w. c #F9D800",
"e. c #F8D803",
"r. c #FFDD00",
"t. c #FFDE00",
"y. c #FDDC02",
"u. c #FCDB00",
"i. c #FFE000",
"p. c #FFE100",
"a. c #FFE100",
/* pixels */
"                                                                                                    ",
"                                                                                                    ",
"                                        # # # # # # # # # #                                         ",
"                              . . . . 7 E ( ( E ( E ( ( E E 7 . . . .                               ",
"                              e y y y j 0.0.w.w.w.w.w.w.w.4.k y y y e                               ",
"                        @ @ * J i.t.t.0.$.$.$.$.$.$.$.$.&.&.4.t.i.i.A * @ @                         ",
"                      o x E E $.=.>.,.$.E E E R E E E E E E $.,.=.,.$.E E x o                       ",
"                    4 y ] t.w.,.$.` ] c y y i y y y u y u y c ' ` $.,.w.t.] y 4                     ",
"                  o y i.r.3.$.=.( c m a X X . X X X X X . X a m v ^ $.$.3.t.t.y o                   ",
"                o x ] t.3.] R ^ h * * , 7 7 7 7 7 7 7 7 7 7 , * * j ^ R o.3.r.o.x o                 ",
"              4 y ] t.4.o.c i i q - - 1 y y u y y y y y y y 1 * * 0 i i c o.3.t.$.y 4               ",
"            o y t.t.4.$.A i . . - w w t d d s i a a a s d d y w e - . . u J $.3.t.t.y o             ",
"          @ x ] t.,.] A 5 , 7 7 q a a d k l u ; & & ; u k k d a a w 5 7 , 5 A ] ,.t.] x @           ",
"          @ E t.4.$.c i , 1 e r i g g s r r 8 O 8 8 O 8 r r q r f p r e 1 , i c $.4.t.R @           ",
"          * E w.$.R i X 7 w e a g l k t O $ & & c c & % % $ O > j g a e w 7 X i E $.0.R *           ",
"      . e A $.,.$.^ i . 7 r p h k k 7 & O j D D 5.5.D D D D 7 : k k h p r 7 . i ^ =.,.$.A e .       ",
"      . y i.=.$.^ h q - w i g k g r & = 0 h z z *.*.z z z z 2 > j l k g i w - q h ^ $.=.i.y .       ",
"      . y t.,.` v * - w a g l k r O + 0 *.8 O $ c c $ $ $ $ + < j l z l g a w * * v ' ,.t.y .       ",
"      . y t.,.] m * * w a g j 7 = $ j j 6 t 0 $ c c $ 0 s u u g k c m l g a w * * m ] <.t.y .       ",
"      7 j w.$.c a , 1 y d h j : ; 0 j d 2 g u $ c c $ u x D c c c Z B z h d y 1 , a c $.w.j 7       ",
"    # E 0.$.E u X 7 y s j l j ; 0 *.8 3 j l u $ c c $ u c 8.8.8.&.E N z l k s t 7 X u R $.0.E #     ",
"    # ( w.$.E y X 7 y d k z j : % 8 d u < s u $ c c $ u x c 5.y.8.&.( N x j d y 7 . u E $.w.( #     ",
"    # ^ w.&.E y X 7 y s k z z 9 ; O u u 8 r 9 $ c c $ 9 u u c 5.8.,.] T x k d y 8 . y E $.w.^ #     ",
"    # E w.=.E y . 7 y d k x A x t O O 8 c 2 O $ c n $ O $ O t x 5.,.] P x k s y 7 X y E $.w.E #     ",
"    # E w.&.E y . 7 y d j c J E x t = 6 I z j j *.5.c n g O = 9 c E { U c j d y 7 X y E &.w.( #     ",
"    # ( w.&.E y X 7 y d j x J ..( c 9 9 h h h j U { c c j 9 & = y c T n x j d y 7 X u E &.w.E #     ",
"    # ( w.$.E i X 7 y d j c S [ 5.5.c t + + + $ j j $ O 8 5.0 O O t l z l j d y 7 X y E &.w.( #     ",
"    # ( w.$.E y X 7 t d j c S ..5.8.5.c u u 0 + j j $ t u 9 g f O ; 9 k l k d y 7 X y E $.w.( #     ",
"    # E w.$.E y X 7 y d j x n ( 5.5.8.5.c x u + h j + h x 2 j z 8 % ; j l k s y 7 X y E $.w.E #     ",
"    # E 4.&.E u X 7 t d j l z D U 5.5.8.8.c u $ j j + g U n 8 6 $.0 ; j l j d y 7 X y E $.0.E #     ",
"      7 k w.$.c a , 2 t g h z n D c c n D x u O j j + h x 9 u p 0 ; ; j h d y 1 , a v $.4.j 7       ",
"      . y t.,.' n * - w i g l c c j g i u p 0 O j j + u s 3 p p O & 7 k g a w * * m ' <.t.y .       ",
"      . y t.,.` v * - e p g z l l k < O $ + + + j j O O 6 c 8 O O r k l g a e * * m ` <.t.y .       ",
"      . y i.,.$.E h 0 - q i g k z j : < d d d f c v f d i 9 & & r f k g i q - 0 h ^ $.,.i.y .       ",
"      . e A &.,.=.^ i . 7 r a h k k > 3 z z z z b N z z i O & 7 l l h p r 7 . i ^ $.<.$.A e .       ",
"          * E w.=.E i X 7 w e a g j > O $ $ $ % k k % $ + O r k l g p e w 7 . i R $.0.R *           ",
"          @ E t.4.o.c i , 1 w r i g e q r t 7 O 4 2 O 8 r r s g g i r w 1 , i c $.4.t.E @           ",
"          @ x ] t.3.] A 5 , 7 7 q a a f k k u ; = = ; u k k d a a q 7 7 , 5 A $.,.t.] x @           ",
"            o y t.t.3.$.A i . . - e w y d d s p p a p s d d t w e - . X i A ] 4.t.t.y o             ",
"              4 y ] t.4.o.c i i 0 * * 1 y y y y y y y y y y 1 - ; q i i c ] 4.t...y 4               ",
"                o x ..t.3.o.R ^ h * * , 7 7 7 8 7 7 8 7 7 7 , * * h ^ E o.3.t.] x o                 ",
"                  o y i.t.3.$.=.E v m a X X X X X X . X X X a m v ^ =.$.4.t.i.y o                   ",
"                    4 y ] t.w.,.$.` ' c y y u y y y y u y y c ] ` $.,.w.t.] y 4                     ",
"                      o x ^ E $.,.>.,.$.E E E E E E E E E E $.=.,.=.$.E E x o                       ",
"                        @ @ * A t.t.t.4.$.&.&.&.$.$.$.$.&.$.w.t.t.i.A * @ @                         ",
"                              e y y y j 4.w.w.w.w.w.w.w.w.w.k y y y e                               ",
"                              . . . . 7 E ( ( E ( ( ^ E E E 7 . . . .                               ",
"                                        # # # # # # # # # #                                         ",
"                                                                                                    ",
"                                                                                                    "
};
